<svg width="106" height="12" viewBox="0 0 106 12" fill="none" xmlns="http://www.w3.org/2000/svg">
<path d="M90.441 0C90.3409 0 90.2464 0.0462074 90.185 0.125208L88.1139 2.78806C88.0724 2.84132 88.1104 2.91892 88.1778 2.91892H88.5021C88.6022 2.91892 88.6967 2.87271 88.7581 2.79371L90.8292 0.13086C90.8706 0.0776013 90.8327 0 90.7652 0H90.441Z" fill="#FB008F"/>
<path d="M100.338 2.3313C100.358 2.50659 100.507 2.6432 100.688 2.6432H103.158L103.196 2.64115C103.373 2.62213 103.51 2.47349 103.51 2.29318V1.48118L103.508 1.44304C103.489 1.26766 103.339 1.13116 103.158 1.13116L102.025 1.13124L102.025 0.67434L102.023 0.636199C102.004 0.460818 101.855 0.324321 101.673 0.324321H100.688L100.65 0.326375C100.474 0.345376 100.336 0.493902 100.336 0.67434L100.336 2.29318L100.338 2.3313Z" fill="#FB008F"/>
<path d="M7.7823 9.41725C7.7823 10.7588 6.60718 11.9541 5.26577 11.9987L5.18821 12H2.59025C1.1579 12 0.0381755 10.9123 0.000942746 9.49913L0 9.41725V6.51165C0 6.33725 0.116891 6.20837 0.284682 6.19085L0.324277 6.18881H1.29706C1.4723 6.18881 1.60169 6.30523 1.61928 6.47225L1.62132 6.51165L1.61797 9.41168C1.61797 9.93093 2.02303 10.3545 2.53377 10.3841L2.59094 10.3858H5.18821C5.6144 10.3858 6.12319 9.89437 6.15899 9.46471L6.16099 9.41725H4.86395C4.68854 9.41725 4.55929 9.30105 4.54173 9.13386L4.53968 9.09441V8.10663C4.53968 7.93204 4.6564 7.80332 4.82432 7.78582L4.86395 7.78378H9.39145C9.92881 7.78378 10.3644 7.34817 10.3644 6.81081V4.86486C10.3644 4.68575 10.5096 4.54054 10.6887 4.54054H11.6617C11.8408 4.54054 11.986 4.68575 11.986 4.86486V6.81081C11.986 7.15489 11.9191 7.48332 11.7974 7.78378H12.9543C13.4917 7.78378 13.9273 7.34817 13.9273 6.81081V4.86486C13.9273 4.68575 14.0725 4.54054 14.2516 4.54054H15.2246C15.4037 4.54054 15.5489 4.68575 15.5489 4.86486V6.81081C15.5489 7.15489 15.482 7.48332 15.3603 7.78378H15.5536C16.091 7.78378 16.5266 7.34817 16.5266 6.81081V4.86486C16.5266 4.68575 16.6718 4.54054 16.8509 4.54054H17.8239C18.003 4.54054 18.1482 4.68575 18.1482 4.86486V6.81081C18.1482 8.24377 16.9866 9.40541 15.5536 9.40541H15.2418C15.1353 9.40541 15.0357 9.35319 14.9751 9.26569L14.6407 8.78269C14.1872 9.17092 13.5982 9.40541 12.9543 9.40541H11.6695C11.5631 9.40541 11.4634 9.35319 11.4028 9.26569L11.0719 8.78772C10.6192 9.17294 10.0325 9.40541 9.39145 9.40541H7.77993L7.7823 9.41725Z" fill="#FB008F"/>
<path d="M13.3231 2.6432C13.1419 2.6432 12.9926 2.50659 12.9736 2.3313L12.9715 2.29318L12.9716 0.67434C12.9716 0.493902 13.1087 0.345376 13.2849 0.326375L13.3232 0.324321H14.3083C14.4897 0.324321 14.6389 0.460818 14.658 0.636199L14.6601 0.67434L14.6604 1.13124L15.7933 1.13116C15.9746 1.13116 16.1238 1.26766 16.1429 1.44304L16.1449 1.48118V2.29318C16.1449 2.47349 16.0078 2.62213 15.8316 2.64115L15.7933 2.6432H13.3231Z" fill="#FB008F"/>
<path d="M76.6581 3.20232C76.6405 3.03518 76.5112 2.91892 76.3358 2.91892H73.7417L73.7021 2.92095C73.5342 2.93845 73.4175 3.06718 73.4175 3.24176V4.21029L73.4195 4.24975C73.4371 4.41694 73.5663 4.53314 73.7417 4.53314H76.3358L76.3755 4.53111C76.5434 4.51361 76.6601 4.38494 76.6601 4.21029V3.24176L76.6581 3.20232Z" fill="#FB008F"/>
<path d="M50.3899 10.3384C50.5653 10.3384 50.6945 10.4547 50.7121 10.6218L50.7141 10.6612V11.6298C50.7141 11.8044 50.5974 11.9331 50.4295 11.9506L50.3899 11.9526H47.7958C47.6204 11.9526 47.4911 11.8364 47.4736 11.6692L47.4715 11.6298V10.6612C47.4715 10.4867 47.5882 10.3579 47.7562 10.3404L47.7958 10.3384H50.3899Z" fill="#FB008F"/>
<path d="M45.8479 1.5807C45.8303 1.41355 45.701 1.2973 45.5257 1.2973H44.5525L44.5129 1.29933C44.3451 1.31683 44.2283 1.44556 44.2283 1.62014V2.58867L44.2303 2.62813C44.2479 2.79531 44.3772 2.91152 44.5525 2.91152H45.5257L45.5653 2.90948C45.7331 2.89199 45.8499 2.76332 45.8499 2.58867V1.62014L45.8479 1.5807Z" fill="#FB008F"/>
<path d="M62.8767 1.2973C63.052 1.2973 63.1813 1.41355 63.1989 1.5807L63.2009 1.62014V2.58867C63.2009 2.76332 63.0842 2.89199 62.9163 2.90948L62.8767 2.91152H61.7417C61.5664 2.91152 61.4371 2.79531 61.4195 2.62813L61.4175 2.58867V1.62014C61.4175 1.44556 61.5342 1.31683 61.7021 1.29933L61.7417 1.2973H62.8767Z" fill="#FB008F"/>
<path d="M28.6988 0.607723C28.6813 0.440582 28.552 0.324324 28.3766 0.324324H27.2417L27.2021 0.326358C27.0342 0.343857 26.9174 0.472585 26.9174 0.647168V1.6157L26.9195 1.65516C26.9371 1.82234 27.0664 1.93854 27.2417 1.93854H28.3766L28.4162 1.93651C28.5841 1.91902 28.7009 1.79034 28.7009 1.6157V0.647168L28.6988 0.607723Z" fill="#FB008F"/>
<path d="M85.9037 0.324324C86.079 0.324324 86.2083 0.440582 86.2259 0.607723L86.2279 0.647168V1.6157C86.2279 1.79034 86.1112 1.91902 85.9433 1.93651L85.9037 1.93854H84.7688C84.5934 1.93854 84.4641 1.82234 84.4465 1.65516L84.4445 1.6157V0.647168C84.4445 0.472585 84.5613 0.343857 84.7291 0.326358L84.7688 0.324324H85.9037Z" fill="#FB008F"/>
<path d="M54.8336 0.125208C54.8951 0.0462074 54.9895 0 55.0896 0H55.4139C55.4813 0 55.5193 0.0776013 55.4779 0.13086L53.4067 2.79371C53.3453 2.87271 53.2508 2.91892 53.1507 2.91892H52.8265C52.759 2.91892 52.7211 2.84132 52.7625 2.78806L54.8336 0.125208Z" fill="#FB008F"/>
<path fill-rule="evenodd" clip-rule="evenodd" d="M87.8235 7.78378H92.5511C93.4791 7.78378 94.1725 7.09035 94.1725 6.16216V5.83784C94.1725 4.90965 93.4791 4.21622 92.5511 4.21622H88.8221C88.5303 4.21622 88.4741 3.95466 88.66 3.72973L91.3909 0.241512C91.5174 0.0885674 91.7055 0 91.9039 0H93.1496C93.4002 0 93.5375 0.291892 93.3778 0.485024L91.7405 2.59459H92.5511C94.4105 2.59459 95.7938 3.97805 95.7938 5.83784V6.16216C95.7938 6.76251 95.6496 7.31322 95.3919 7.78378H97.0807C97.618 7.78378 98.0536 7.34817 98.0536 6.81081V4.86486C98.0536 4.68575 98.1988 4.54054 98.378 4.54054H99.3509C99.5301 4.54054 99.6753 4.68575 99.6753 4.86486V6.81081C99.6753 7.15489 99.6083 7.48332 99.4867 7.78378H100.644C101.181 7.78378 101.617 7.34817 101.617 6.81081V4.86486C101.617 4.68575 101.762 4.54054 101.941 4.54054H102.914C103.093 4.54054 103.238 4.68575 103.238 4.86486V6.81081C103.238 7.15489 103.171 7.48332 103.05 7.78378H103.243C103.78 7.78378 104.216 7.34817 104.216 6.81081V4.86486C104.216 4.68575 104.361 4.54054 104.54 4.54054H105.513C105.692 4.54054 105.837 4.68575 105.837 4.86486V6.81081C105.837 8.24377 104.676 9.40541 103.243 9.40541H102.931C102.825 9.40541 102.725 9.35319 102.664 9.26569L102.33 8.78271C101.876 9.17093 101.287 9.40541 100.644 9.40541H99.3587C99.2523 9.40541 99.1526 9.35319 99.0921 9.26569L98.7612 8.78772C98.3084 9.17294 97.7217 9.40541 97.0807 9.40541H95.1425C95.0361 9.40541 94.9364 9.35319 94.8758 9.26569L94.5338 8.77157C93.9943 9.17336 93.3126 9.40541 92.5511 9.40541H80.5479C80.4415 9.40541 80.3418 9.35319 80.2812 9.26569L79.9503 8.78768C79.4976 9.17293 78.9108 9.40541 78.2698 9.40541H71.7959C70.3629 9.40541 69.2013 8.24377 69.2013 6.81081V4.86486C69.2013 4.68575 69.3465 4.54054 69.5256 4.54054H70.4986C70.6777 4.54054 70.8229 4.68575 70.8229 4.86486V6.81081C70.8229 7.34817 71.2585 7.78378 71.7959 7.78378H78.2698C78.8072 7.78378 79.2428 7.34817 79.2428 6.81081V4.86486C79.2428 4.68575 79.388 4.54054 79.5671 4.54054H80.5401C80.7192 4.54054 80.8644 4.68575 80.8644 4.86486V6.81081C80.8644 7.15489 80.7974 7.48332 80.6758 7.78378H83.0115C82.8899 7.48332 82.8229 7.15489 82.8229 6.81081V5.83784C82.8229 4.40488 83.9845 3.24324 85.4175 3.24324C86.8504 3.24324 88.0121 4.40488 88.0121 5.83784V6.81081C88.0121 7.15489 87.9451 7.48332 87.8235 7.78378ZM86.3904 5.83784V6.81081C86.3904 7.34817 85.9548 7.78378 85.4175 7.78378C84.8801 7.78378 84.4445 7.34817 84.4445 6.81081V5.83784C84.4445 5.30048 84.8801 4.86486 85.4175 4.86486C85.9548 4.86486 86.3904 5.30048 86.3904 5.83784Z" fill="#FB008F"/>
<path fill-rule="evenodd" clip-rule="evenodd" d="M30.2964 7.78378C30.418 7.48332 30.485 7.15489 30.485 6.81081V5.83784C30.485 4.40488 29.3234 3.24324 27.8904 3.24324C26.4575 3.24324 25.2958 4.40488 25.2958 5.83784V6.81081C25.2958 7.15489 25.3628 7.48332 25.4844 7.78378H24.6472C24.1098 7.78378 23.6742 7.34817 23.6742 6.81081V4.86486L23.6742 4.86358V1.2973C23.6742 1.11818 23.529 0.972973 23.3499 0.972973H22.3769C22.1978 0.972973 22.0526 1.11818 22.0526 1.2973V6.48649L22.0526 6.48777V6.81081C22.0526 8.24377 23.2142 9.40541 24.6472 9.40541H32.0942C32.7352 9.40541 33.3219 9.17294 33.7746 8.78772L34.1055 9.26569C34.1661 9.35319 34.2658 9.40541 34.3722 9.40541H35.657C36.3009 9.40541 36.8899 9.17092 37.3434 8.78269L37.6778 9.26569C37.7384 9.35319 37.838 9.40541 37.9445 9.40541H38.2563C39.6893 9.40541 40.8509 8.24377 40.8509 6.81081V4.86486C40.8509 4.68575 40.7057 4.54054 40.5266 4.54054H39.5536C39.3745 4.54054 39.2293 4.68575 39.2293 4.86486V6.81081C39.2293 7.34817 38.7937 7.78378 38.2563 7.78378H38.063C38.1847 7.48332 38.2516 7.15489 38.2516 6.81081V4.86486C38.2516 4.68575 38.1064 4.54054 37.9273 4.54054H36.9543C36.7752 4.54054 36.63 4.68575 36.63 4.86486V6.81081C36.63 7.34817 36.1944 7.78378 35.657 7.78378H34.5001C34.6218 7.48332 34.6887 7.15489 34.6887 6.81081V4.86486C34.6887 4.68575 34.5435 4.54054 34.3644 4.54054H33.3914C33.2123 4.54054 33.0671 4.68575 33.0671 4.86486V6.81081C33.0671 7.34817 32.6315 7.78378 32.0942 7.78378H30.2964ZM28.8634 6.81081V5.83784C28.8634 5.30048 28.4278 4.86486 27.8904 4.86486C27.3531 4.86486 26.9174 5.30048 26.9174 5.83784V6.81081C26.9174 7.34817 27.3531 7.78378 27.8904 7.78378C28.4278 7.78378 28.8634 7.34817 28.8634 6.81081Z" fill="#FB008F"/>
<path d="M60.0405 7.78378C60.2983 7.31322 60.4424 6.76251 60.4424 6.16216V5.83784C60.4424 3.97805 59.0592 2.59459 57.1998 2.59459H56.3891L58.0265 0.485024C58.1862 0.291892 58.0489 0 57.7982 0H56.5525C56.3541 0 56.166 0.0885674 56.0395 0.241512L53.3087 3.72973C53.1227 3.95466 53.1789 4.21622 53.4708 4.21622H57.1998C58.1278 4.21622 58.8211 4.90965 58.8211 5.83784V6.16216C58.8211 7.09035 58.1278 7.78378 57.1998 7.78378H51.811C51.9326 7.48332 51.9996 7.15489 51.9996 6.81081V4.86486C51.9996 4.68575 51.8544 4.54054 51.6753 4.54054H50.7023C50.5232 4.54054 50.378 4.68575 50.378 4.86486V6.81081C50.378 7.34817 49.9424 7.78378 49.405 7.78378H45.871V4.86486C45.871 4.68575 45.7258 4.54054 45.5466 4.54054H44.5737C44.3946 4.54054 44.2494 4.68575 44.2494 4.86486V8.75676C44.2494 9.68494 43.5564 10.3784 42.6284 10.3784H41.2546C40.9628 10.3784 40.9065 10.6399 41.0925 10.8649L41.7864 11.7512C41.9093 11.9082 42.0977 12 42.2971 12H42.6284C44.4878 12 45.8711 10.6165 45.8711 8.75676L45.871 8.75114L46.2272 9.26569C46.2878 9.35319 46.3874 9.40541 46.4939 9.40541H49.405C50.0556 9.40541 50.6502 9.16597 51.1056 8.77041L51.6027 9.40541H57.1998C58.1649 9.40541 59.0018 9.03265 59.5835 8.41401L60.1731 9.26569C60.2337 9.35319 60.3334 9.40541 60.4398 9.40541H62.7023C64.1353 9.40541 65.2969 8.24377 65.2969 6.81081V4.86486C65.2969 4.68575 65.1517 4.54054 64.9726 4.54054H63.9996C63.8205 4.54054 63.6753 4.68575 63.6753 4.86486V6.81081C63.6753 7.34817 63.2397 7.78378 62.7023 7.78378H60.0405Z" fill="#FB008F"/>
<path d="M16.301 10.8649L16.9949 11.7512C17.1179 11.9082 17.3062 12 17.5057 12H17.837C19.6963 12 21.0796 10.6165 21.0796 8.75676V4.86486C21.0796 4.68575 20.9344 4.54054 20.7553 4.54054H19.7823C19.6032 4.54054 19.458 4.68575 19.458 4.86486V8.75676C19.458 9.68494 18.765 10.3784 17.837 10.3784H16.4632C16.1713 10.3784 16.1151 10.6399 16.301 10.8649Z" fill="#FB008F"/>
<path d="M66.2823 1.2973C66.2823 1.11818 66.4275 0.972973 66.6067 0.972973H67.5796C67.7588 0.972973 67.904 1.11818 67.904 1.2973V9.08108C67.904 9.2602 67.7588 9.40541 67.5796 9.40541H66.6067C66.4275 9.40541 66.2823 9.2602 66.2823 9.08108V1.2973Z" fill="#FB008F"/>
</svg>
